<svg xmlns="http://www.w3.org/2000/svg" viewBox="0 0 158.95 99.85"><defs><style>.cls-1{fill:#ffcb05;}.cls-2,.cls-4{fill:#fff;}.cls-3{fill:#babcbe;}.cls-4{font-size:32px;stroke:#000;stroke-miterlimit:10;stroke-width:2px;font-family:ProximaNova-BlackIt, Proxima Nova;font-weight:800;font-style:italic;}</style></defs><g id="Layer_2" data-name="Layer 2"><g id="Layer_1-2" data-name="Layer 1"><path class="cls-1" d="M85,42.45A42.34,42.34,0,0,0,59.63,29.8c-1.58.72-4.73,2-5.13,3.79C53.74,37,57.65,41,57.65,41c-6.77-2.5-7.11-6.75-7-7.61.25-1.5,1.72-2.95,4.91-3.93-.8-.12-1.6-.27-2.39-.45a8.71,8.71,0,0,0-3.31,2.45,4.38,4.38,0,0,1,1.47-3,6,6,0,0,0-1.43-.39c-.78,0-2,.57-5.31,1.58a21,21,0,0,0,4.25,2c-1.33.58-5.89,0-8.51-1a19.66,19.66,0,0,1-4.2.12A20.8,20.8,0,0,0,44,33.6a17.25,17.25,0,0,0,5.58-1.15c-1.64,3.74-5.85,5.71-5.85,5.71a29.4,29.4,0,0,1-5.5-2.74,8.26,8.26,0,0,0-2.11,1.93,14.72,14.72,0,0,1,6.22,1s-5.5-.39-7.88,1.55a14.07,14.07,0,0,0-.66,1.49A29.54,29.54,0,0,1,51.36,40a20.26,20.26,0,0,1,3.27.53s-10.36-.87-14.75,3.88c0,0,6.45-3.43,12-2.12a20.31,20.31,0,0,0-5.4,8.22l.15,0c2.59-5.79,8-8.06,9.18-8.69,0,0-4.52,4.89-4.78,7.62a11.29,11.29,0,0,1,4.34-1.77,10.63,10.63,0,0,1,1.85-.29,10.93,10.93,0,0,0-3.48,3.86s1.95-1.91,7-3.58l.4-.34a22.75,22.75,0,0,1,6.56-4.16C65,43.42,57,46.61,57,46.61a30.74,30.74,0,0,1,10.13-4.5,55.16,55.16,0,0,0-9.68,1.16,28.4,28.4,0,0,1,10.91-1.9,26,26,0,0,1,7.21,1.72l1,.13-.89-2.45a11.64,11.64,0,0,0,2.62,1.62c.56,0,6.61.06,6.61.06ZM73.12,38.63a2.22,2.22,0,0,1-2.24-.47,4.72,4.72,0,0,1-3.09,1.06S64.7,36.81,62,37.29c0-.72,0-1.15-1.14-1.18a11.68,11.68,0,0,0-3.27.5c2.45-3,7.84-4.11,8.08-3.9,3.43,1.64,6.74,4.76,8.39,3.21,0,0,.62,2-.94,2.71Z"/><path class="cls-2" d="M71.14,57a2.25,2.25,0,0,1-.08,1.47,9.16,9.16,0,0,0-1.62-.57,13.12,13.12,0,0,0,1.7-.9ZM44,33.6a20.8,20.8,0,0,1-7.8-2.8s4.27,3.8,7.61,4.16c1.48.15,5.17-2,5.77-2.51A17.25,17.25,0,0,1,44,33.6ZM42.3,38.38a14.72,14.72,0,0,0-6.22-1,15,15,0,0,0-1.67,2.58C36.8,38,42.3,38.38,42.3,38.38Zm14.88,9a10.63,10.63,0,0,0-1.85.29,12.79,12.79,0,0,0-3.86,4.91,31.82,31.82,0,0,1,3,1.82c1.37-3.67,4.58-6.21,6.2-6.74-5,1.67-7,3.58-7,3.58a11.06,11.06,0,0,1,3.49-3.86Z"/><path class="cls-2" d="M75.59,43.09c-7.39-1-14.05,4-14.5,4.23l-.4.34A11.49,11.49,0,0,0,58,57.21,42.86,42.86,0,0,1,63.9,64s2.35-1.88,4.8-.84A4.5,4.5,0,0,1,70,60.09s-3.22-2.18-5.76-.43C55.5,49.38,69.78,44.23,76.73,44.82l5,3.29a3.52,3.52,0,0,0,1.65-3l-6.79-1.87Zm-1.52-7.17c-1.66,1.56-5-1.57-8.39-3.21,2,1.78,3.77,4.06,5.83,4.5a2.25,2.25,0,0,0,2.56-1.29Zm-16.48.7a11.33,11.33,0,0,1,3.27-.51c1.17,0,1.13.46,1.14,1.18,0,0,1.26-1.67-.14-1.68a19.52,19.52,0,0,0-4.27,1Zm8.85-.39a.63.63,0,0,0,.6-.41c-.32-.25-.64-.5-.94-.77a4.27,4.27,0,0,1-.38-.36,1.72,1.72,0,0,0-1.64,1.66A2.47,2.47,0,0,1,66,37a1.79,1.79,0,0,1-.19-1.2.63.63,0,0,0,.6.43Z"/><path class="cls-2" d="M78.05,50.3c.18-.64.33-1.52.44-2.11l1.67,1.27a4.16,4.16,0,0,1-2.11.84ZM36.79,47.76a25,25,0,0,1,11.28-4.61A16,16,0,0,0,43,49.53c1.17.26,2.34.56,3.48.93a20.31,20.31,0,0,1,5.4-8.22c-5.51-1.3-11.95,2.12-11.95,2.12,4.38-4.74,14.74-3.88,14.74-3.88A21.42,21.42,0,0,0,51.35,40a24.35,24.35,0,0,0-10.24,1.61,14.31,14.31,0,0,0-4.54,3s-.22.22-.52.57c-.11.12-.23.26-.35.42-.3.38-.74,1-1.11,1.57l1.58.47Zm62.83-44L6.1,10,4.74,14.82l7.63-.89-4.58,16c-1.63,6.35,2.28,8.56,4.6,9.4-1-2.47-1.05-5.61.35-10.28l4.51-15.71,82.34-9.5,0-.08Z"/><path class="cls-2" d="M91.93,16,90.14,7l-4,.46L81,25.52l4-.46,2.7-9.53c3.41,10.66,1.36,14.7,1.36,14.7,2.15-1.1,3.64-3.43,4.47-6.15L98.66,6l-4,.46ZM79.34,22.34,83.45,7.75l-8,.91c-3.54.41-4.49,1.92-5.08,4L66.31,27.22l8-.91c3.52-.42,4.49-1.92,5.06-4Zm-8,.91L74.5,12.17l3.86-.44L75.26,22.8ZM60.47,27.89a4.66,4.66,0,0,0,4.11-3.83l2-7.3-8,.93,1.05-3.81,3.88-.45,3.61,1.27,1.48-5.26-8,.92c-3.55.42-4.5,1.93-5.09,4l-2,7.27,8-.91-1.05,3.77-3.87.45L53,23.66l-.82,2.91a26.21,26.21,0,0,0,3.28.7c1.76.16,3.42.37,5,.62ZM49.69,26.22c.05-.17.11-.33.16-.51L54,11.13l-4.12.47L45.7,26.18,42,26.61,46.09,12,42,12.5,37.83,27.08l-3.72.43,4.1-14.59-4.12.47L29,31.47,32.9,31a15.56,15.56,0,0,1-2.25-2.92c8.68,1.74,16.39-1.48,19-1.89ZM22,32.28l.24,0c3.52-.42,4.49-1.92,5.07-4l4.1-14.59-8,.92c-3.54.4-4.5,1.91-5.09,4L14.25,33.17l5.33-.61a7.09,7.09,0,0,1-.48-2.13A17.85,17.85,0,0,0,22,32.28Zm.46-14.16,3.86-.44L23.2,28.75l-3.87.45Z"/><path d="M4.41,8,1.74,17.31l7.66-.86-4,14h0a8,8,0,0,0-.29,2.18c0,5.11,4.23,9.09,10,9.11a2.83,2.83,0,0,0,.41,0,16.46,16.46,0,0,1-2.17-6.26l7.35-.83a7.91,7.91,0,0,1-1.14-2l-5.33.61,4.08-14.58c.59-2.06,1.54-3.57,5.08-4l8-.92L27.28,28.29c-.57,2.05-1.54,3.55-5.06,4l-.24,0a17.85,17.85,0,0,1-2.88-1.85s1.69,4.08,12.43,8.39c-.28.53-.55,1.11-.82,1.74a46.32,46.32,0,0,1-11.07-5.22s3.23,5.59,16.21,10.06l.2-.24c.3-.34.53-.57.53-.57a14.09,14.09,0,0,1,4.54-3A24.3,24.3,0,0,1,51.35,40a29.5,29.5,0,0,0-17.59,1.47c.21-.54.43-1,.66-1.49a14.35,14.35,0,0,1,1.66-2.58,8.26,8.26,0,0,1,2.11-1.93,29.7,29.7,0,0,0,5.5,2.74s4.21-2,5.85-5.71c-.59.51-4.3,2.66-5.77,2.5-3.34-.35-7.61-4.15-7.61-4.15a19.76,19.76,0,0,0,4.21-.12c2.61,1,7.17,1.56,8.51,1a21.61,21.61,0,0,1-4.26-2c3.33-1,4.54-1.62,5.32-1.58a5.75,5.75,0,0,1,1.42.39,4.47,4.47,0,0,0-1.47,3A8.75,8.75,0,0,1,53.21,29c.65.15,1.43.31,2.38.45-3.19,1-4.66,2.43-4.91,3.93-.14.86.21,5.11,7,7.61,0,0-3.91-4-3.15-7.43.4-1.77,3.55-3.07,5.13-3.79A42.34,42.34,0,0,1,85,42.45s-6,0-6.61-.06a11.64,11.64,0,0,1-2.62-1.62l.89,2.45,6.79,1.87a3.5,3.5,0,0,1-1.66,3l-5-3.29c-7-.59-21.23,4.56-12.54,14.84,2.53-1.75,5.75.43,5.75.43a4.5,4.5,0,0,0-1.24,3.09c-2.46-1-4.81.84-4.81.84A42.8,42.8,0,0,0,58,57.21a11.5,11.5,0,0,1,2.68-9.55c-1.62.53-4.84,3.07-6.2,6.74a32,32,0,0,0-3-1.82,12.88,12.88,0,0,1,3.86-4.91A11.23,11.23,0,0,0,51,49.44c.26-2.73,4.77-7.62,4.77-7.62-1.17.64-6.59,2.91-9.17,8.7l-.16-.06A34.28,34.28,0,0,0,43,49.53a16.1,16.1,0,0,1,5.12-6.38,25.11,25.11,0,0,0-11.28,4.6l-.61-.13c-.52-.14-1-.3-1.56-.46h0c-9.21-2.86-14-6.8-14-6.8s3.15,5.8,13.86,9.52c3.86,1.33,7.94,2.54,12.18,4A28.66,28.66,0,0,1,63,68.05c2.07-3.1,5.15-3.29,7.77-2.23,0,0-1-4.13,2.74-6a11.17,11.17,0,0,0-1.22-.68,4.75,4.75,0,0,0-.57-3.8A7.65,7.65,0,0,1,69,56.65c-1.55-.89-1.91-1.82-1.76-2.75.23-1.38,0-2.54-2-3.78,3.23-2.92,10-4.12,11.94-2.87a16.25,16.25,0,0,1-.8,4.42s8.13.21,8.6-6.57l4-2.3c-5.62-5.22-11.7-10.52-22.09-13.48L87.49,27s-.15,4.13-2.47,6.65A11.74,11.74,0,0,0,95.59,24.7l6.77-23.31ZM71.14,57a2.25,2.25,0,0,1-.08,1.47,9.16,9.16,0,0,0-1.62-.57,13.12,13.12,0,0,0,1.7-.9Zm-5.68-2.78A2.76,2.76,0,0,0,66.59,57a2.63,2.63,0,0,1-2.12-.7,4.2,4.2,0,0,1-.38-4.78c1.63,1.12,1.45,2,1.37,2.66ZM78.05,50.3c.18-.64.33-1.52.44-2.11l1.67,1.27a4.16,4.16,0,0,1-2.11.84ZM32.81,36.52A58.39,58.39,0,0,1,25.64,34L35,33c.22.17.44.36.67.53a22.6,22.6,0,0,0-2.85,3Zm17-10.81c-.05.17-.11.34-.16.51-2.65.41-10.36,3.64-19,1.89A15.56,15.56,0,0,0,32.9,31L29,31.47,34.09,13.4l4.12-.47-4.1,14.58,3.72-.43L42,12.5,46.09,12,42,26.61l3.72-.43L49.82,11.6,54,11.13Zm10.62,2.18c-1.66-.26-3.32-.47-5-.62a24.4,24.4,0,0,1-3.27-.7L53,23.66l3.6,1.28,3.88-.44,1-3.78-7.95.91,2-7.27c.59-2.07,1.54-3.58,5.09-4l8-.93L67.2,14.7l-3.62-1.27-3.87.45-1.06,3.81,8-.93-2,7.31a4.66,4.66,0,0,1-4.11,3.82Zm13.81-1.58-8,.91,4.08-14.58c.59-2.06,1.54-3.57,5.09-4l8-.91L79.34,22.34c-.57,2.05-1.54,3.55-5.06,4Zm19.25-2.23c-.83,2.72-2.31,5.05-4.46,6.15,0,0,2-4-1.36-14.7L85,25.06l-4,.46L86.11,7.44l4-.46,1.79,9,2.7-9.54,4-.45ZM17.25,13.33,12.74,29c-1.4,4.67-1.39,7.8-.35,10.28-2.32-.84-6.23-3-4.59-9.4l4.57-16-7.64.89L6.1,10,99.62,3.75l0,.08Zm57.24-1.16,3.87-.44L75.26,22.8l-3.87.45ZM19.11,30.57v0Zm0,.14v0Zm0-.14a.17.17,0,0,0,0-.07Zm4.09-1.82-3.87.45,3.11-11.08,3.86-.44ZM67.79,39.22a4.72,4.72,0,0,0,3.09-1.06,2.23,2.23,0,0,0,2.24.46c1.56-.69.94-2.7.94-2.7a2.26,2.26,0,0,1-2.56,1.29c-2-.45-3.81-2.73-5.83-4.5-.24-.21-5.63.92-8.08,3.9a19.52,19.52,0,0,1,4.27-1c1.4,0,.14,1.69.14,1.69,2.7-.48,5.79,1.93,5.79,1.93Zm-2.07-4.53a5,5,0,0,0,.38.36c.24.22.56.48.94.77a.64.64,0,0,1-1.2,0A1.85,1.85,0,0,0,66,37a2.5,2.5,0,0,0-2-.65,1.72,1.72,0,0,1,1.64-1.66ZM57,46.61a30.6,30.6,0,0,1,10.12-4.5,55.28,55.28,0,0,0-9.68,1.16,28.4,28.4,0,0,1,10.91-1.9,26,26,0,0,1,7.21,1.72c-7.39-1-14.05,4-14.5,4.24a22.58,22.58,0,0,1,6.56-4.17C65,43.41,57,46.61,57,46.61Z"/><path class="cls-3" d="M34.61,47.16h0ZM19.12,30.73v0ZM3.44,6.76,0,18.78l7.55-.84a0,0,0,0,1,.06,0,.07.07,0,0,1,0,.06L4.2,30.09a10.23,10.23,0,0,0,2.58,9.59A11.81,11.81,0,0,0,15.56,43a11.38,11.38,0,0,0,2.1-.26,18.43,18.43,0,0,1-2.73-6.14.07.07,0,0,1,.07-.08l2.26-.24s.06,0,.08,0A18.74,18.74,0,0,0,25,46.81a30.46,30.46,0,0,0,7.62,3.73c2.45.78,3.52,1.13,4.68,1.48,11,3.42,19.74,6.12,25.38,18.64.32-.79,1.91-4.16,5.47-4.16a8.68,8.68,0,0,1,4.31,1.35A6.62,6.62,0,0,1,72.22,63a5.8,5.8,0,0,1,3.8-3.1,8.23,8.23,0,0,0-2.43-1.61s0,0,0-.07a6.51,6.51,0,0,0-1.64-4.75,8.88,8.88,0,0,1-2.62,1.74.06.06,0,0,1-.06,0c-.84-.43-.79-1.34-.74-2.21,0-.1,0-.2,0-.3a3.52,3.52,0,0,0-1.14-2.45s0,0,0,0a.07.07,0,0,1,0-.06,15.7,15.7,0,0,1,7.42-2.06c.33,0,.66,0,1,0l0,0a.08.08,0,0,1,0,.05,9.2,9.2,0,0,1-1.54,4.56,17.09,17.09,0,0,0,2.14.14h.09c5.29,0,9.18-2.8,9.68-7,0,0,0,0,0,0l4.9-2.79a59.66,59.66,0,0,0-18.37-13,.07.07,0,0,1,0-.07.07.07,0,0,1,.07-.06l13.12-1.5a.07.07,0,0,1,.08.07,10.36,10.36,0,0,1-3.33,6.19,14.17,14.17,0,0,0,1.6.09c3.51,0,9.82-1.26,12.53-9.72l7.26-25ZM95.59,24.7A11.75,11.75,0,0,1,85,33.61C87.34,31.09,87.49,27,87.49,27L66.91,29.32c10.4,3,16.47,8.27,22.1,13.48l-4,2.31c-.46,6.77-8.59,6.56-8.59,6.56a17,17,0,0,0,.8-4.42c-1.91-1.25-8.71,0-11.94,2.88,1.93,1.23,2.18,2.39,2,3.77-.15.93.21,1.86,1.76,2.75a7.65,7.65,0,0,0,2.72-1.36,4.71,4.71,0,0,1,.57,3.8,11.17,11.17,0,0,1,1.22.68c-3.79,1.92-2.74,6-2.74,6C68.11,64.76,65,65,63,68.05a28.65,28.65,0,0,0-16.34-14.2c-4.24-1.43-8.32-2.64-12.18-4-10.71-3.71-13.86-9.5-13.86-9.5s4.8,3.93,14,6.8c.38-.56.81-1.2,1.11-1.58l.18-.21,0,0c-13-4.47-16.21-10.06-16.21-10.06a46.32,46.32,0,0,0,11.07,5.22c.25-.59.53-1.17.82-1.74C20.79,34.51,19.1,30.43,19.1,30.43s0,.11,0,.3a.52.52,0,0,0,0,.11v0l0,.13a.29.29,0,0,0,0,.09,8,8,0,0,0,1.55,3.55l-7.35.82a16.28,16.28,0,0,0,2.17,6.27c-.14,0-.27,0-.41,0-5.77,0-10-4-10-9.11a8.08,8.08,0,0,1,.29-2.19h0l4-14-7.66.86L4.41,8l98-6.58Z"/><path class="cls-3" d="M19.14,30.89a.29.29,0,0,0,0,.09Zm0-.07a.25.25,0,0,0,0-.09Zm45,20.7a4.2,4.2,0,0,0,.38,4.78,2.6,2.6,0,0,0,2.12.69,2.73,2.73,0,0,1-1.13-2.81c.08-.7.26-1.54-1.37-2.66ZM25.64,34a58.39,58.39,0,0,0,7.17,2.48,22.6,22.6,0,0,1,2.85-3c-.22-.17-.45-.34-.67-.53ZM36.05,45.16l-.16.19c.06-.06.11-.13.16-.19Z"/><text class="cls-4" transform="translate(10.95 86.12)">Connect</text></g></g></svg>